<svg width="28" height="28" viewBox="0 0 32 32" fill="none" xmlns="http://www.w3.org/2000/svg">
<path d="M11.1122 32C13.0103 32 14.5489 30.4613 14.5489 28.5633C14.5489 26.6652 13.0103 25.1266 11.1122 25.1266C9.21415 25.1266 7.67548 26.6652 7.67548 28.5633C7.67548 30.4613 9.21415 32 11.1122 32Z" fill="#EDEDED"/>
<path d="M25.6229 32C27.521 32 29.0596 30.4613 29.0596 28.5633C29.0596 26.6652 27.521 25.1266 25.6229 25.1266C23.7249 25.1266 22.1862 26.6652 22.1862 28.5633C22.1862 30.4613 23.7249 32 25.6229 32Z" fill="#EDEDED"/>
<path d="M8.40098 5.99519L7.2172 2.40571C6.74598 0.986652 5.42823 0.0213425 3.93316 0H1.37469C0.952884 0 0.610966 0.341918 0.610966 0.763725C0.610966 1.18553 0.952884 1.52745 1.37469 1.52745H3.93316C4.76354 1.5458 5.49474 2.07899 5.76613 2.86399L10.5776 17.4893L10.2339 18.3676C9.81521 19.4625 9.92806 20.6896 10.5395 21.6897C11.175 22.66 12.2442 23.2587 13.4035 23.2936H28.296C28.7179 23.2936 29.0598 22.9517 29.0598 22.5299C29.0598 22.108 28.7179 21.7661 28.296 21.7661H13.4034C12.7604 21.7439 12.1719 21.3994 11.8378 20.8496C11.4773 20.307 11.406 19.622 11.6469 19.0167L12.1051 17.871C12.1739 17.688 12.1872 17.4888 12.1432 17.2982L11.9141 16.7254L27.4559 15.1216C28.5875 15.0198 29.5263 14.204 29.7852 13.0977L31.389 6.33879L8.40098 5.99519Z" fill="#EDEDED"/>
</svg>
