<svg width="355" height="68" viewBox="0 0 355 93" fill="none" xmlns="http://www.w3.org/2000/svg">
<path d="M43.5 0H7.5C5.51156 0.00223323 3.6052 0.793127 2.19917 2.19917C0.793126 3.6052 0.00223323 5.51156 0 7.5V85.5C0.00223323 87.4884 0.793126 89.3948 2.19917 90.8008C3.6052 92.2069 5.51156 92.9978 7.5 93H43.5C45.4884 92.9978 47.3948 92.2069 48.8008 90.8008C50.2069 89.3948 50.9978 87.4884 51 85.5V7.5C50.9978 5.51156 50.2069 3.6052 48.8008 2.19917C47.3948 0.793127 45.4884 0.00223323 43.5 0ZM35.6704 3L34.7704 7.5H16.2298L15.3298 3H35.6704ZM48 85.5C47.9987 86.6931 47.5241 87.8369 46.6805 88.6805C45.8369 89.5241 44.6931 89.9987 43.5 90H7.5C6.30694 89.9987 5.16312 89.5241 4.3195 88.6805C3.47587 87.8369 3.00134 86.6931 3 85.5V7.5C3.00134 6.30694 3.47587 5.16312 4.3195 4.3195C5.16312 3.47588 6.30694 3.00134 7.5 3H12.2702L13.5291 9.29419C13.5971 9.63423 13.7808 9.9402 14.049 10.16C14.3172 10.3799 14.6532 10.5 15 10.5H36C36.3468 10.5 36.6828 10.3799 36.951 10.16C37.2192 9.9402 37.4029 9.63423 37.4709 9.29419L38.7298 3H43.5C44.6931 3.00134 45.8369 3.47588 46.6805 4.3195C47.5241 5.16312 47.9987 6.30694 48 7.5V85.5Z" fill="#F8F8F8"/>
<path d="M16.5 84H7.5C7.10218 84 6.72064 84.158 6.43934 84.4393C6.15803 84.7206 6 85.1022 6 85.5C6 85.8978 6.15803 86.2794 6.43934 86.5607C6.72064 86.842 7.10218 87 7.5 87H16.5C16.8978 87 17.2794 86.842 17.5607 86.5607C17.842 86.2794 18 85.8978 18 85.5C18 85.1022 17.842 84.7206 17.5607 84.4393C17.2794 84.158 16.8978 84 16.5 84Z" fill="#F8F8F8"/>
<path d="M22.5 84H21C20.6022 84 20.2206 84.158 19.9393 84.4393C19.658 84.7206 19.5 85.1022 19.5 85.5C19.5 85.8978 19.658 86.2794 19.9393 86.5607C20.2206 86.842 20.6022 87 21 87H22.5C22.8978 87 23.2794 86.842 23.5607 86.5607C23.842 86.2794 24 85.8978 24 85.5C24 85.1022 23.842 84.7206 23.5607 84.4393C23.2794 84.158 22.8978 84 22.5 84Z" fill="#F8F8F8"/>
<path d="M101.192 28.304C100.232 27.216 98.952 26.336 97.352 25.664C95.752 24.992 93.928 24.656 91.88 24.656C88.872 24.656 86.68 25.232 85.304 26.384C83.928 27.504 83.24 29.04 83.24 30.992C83.24 32.016 83.416 32.864 83.768 33.536C84.152 34.176 84.728 34.736 85.496 35.216C86.264 35.696 87.24 36.112 88.424 36.464C89.64 36.816 91.064 37.168 92.696 37.52C94.52 37.904 96.152 38.336 97.592 38.816C99.064 39.296 100.312 39.904 101.336 40.64C102.36 41.344 103.144 42.208 103.688 43.232C104.232 44.256 104.504 45.536 104.504 47.072C104.504 48.64 104.2 50 103.592 51.152C102.984 52.304 102.136 53.264 101.048 54.032C99.96 54.8 98.664 55.376 97.16 55.76C95.656 56.112 94.008 56.288 92.216 56.288C86.936 56.288 82.376 54.64 78.536 51.344L80.216 48.608C80.824 49.248 81.544 49.856 82.376 50.432C83.24 51.008 84.184 51.52 85.208 51.968C86.264 52.384 87.384 52.72 88.568 52.976C89.752 53.2 91 53.312 92.312 53.312C95.032 53.312 97.144 52.832 98.648 51.872C100.184 50.88 100.952 49.392 100.952 47.408C100.952 46.352 100.728 45.472 100.28 44.768C99.864 44.032 99.224 43.408 98.36 42.896C97.496 42.352 96.424 41.888 95.144 41.504C93.864 41.12 92.376 40.736 90.68 40.352C88.888 39.936 87.32 39.504 85.976 39.056C84.632 38.608 83.496 38.048 82.568 37.376C81.64 36.704 80.936 35.904 80.456 34.976C80.008 34.016 79.784 32.848 79.784 31.472C79.784 29.904 80.072 28.512 80.648 27.296C81.256 26.048 82.104 25.024 83.192 24.224C84.28 23.392 85.56 22.768 87.032 22.352C88.504 21.904 90.136 21.68 91.928 21.68C94.2 21.68 96.216 22.032 97.976 22.736C99.768 23.408 101.384 24.368 102.824 25.616L101.192 28.304ZM124.252 53.216C126.396 53.216 128.172 52.816 129.58 52.016C131.02 51.184 132.156 50.112 132.988 48.8C133.852 47.456 134.444 45.936 134.764 44.24C135.116 42.544 135.292 40.832 135.292 39.104V21.92H138.652V39.104C138.652 41.408 138.396 43.6 137.884 45.68C137.372 47.728 136.54 49.536 135.388 51.104C134.268 52.672 132.796 53.92 130.972 54.848C129.148 55.776 126.924 56.24 124.3 56.24C121.612 56.24 119.34 55.76 117.484 54.8C115.66 53.808 114.188 52.512 113.068 50.912C111.948 49.312 111.148 47.488 110.668 45.44C110.188 43.392 109.948 41.28 109.948 39.104V21.92H113.26V39.104C113.26 40.896 113.436 42.64 113.788 44.336C114.14 46.032 114.732 47.536 115.564 48.848C116.428 50.16 117.564 51.216 118.972 52.016C120.38 52.816 122.14 53.216 124.252 53.216ZM146.663 56V21.92H160.775C162.247 21.92 163.591 22.24 164.807 22.88C166.055 23.488 167.127 24.304 168.023 25.328C168.919 26.32 169.623 27.456 170.135 28.736C170.647 30.016 170.903 31.312 170.903 32.624C170.903 34.032 170.663 35.392 170.183 36.704C169.703 37.984 169.031 39.12 168.167 40.112C167.303 41.104 166.263 41.904 165.047 42.512C163.863 43.12 162.535 43.424 161.063 43.424H150.023V56H146.663ZM150.023 40.448H160.919C161.911 40.448 162.807 40.24 163.607 39.824C164.439 39.376 165.143 38.8 165.719 38.096C166.295 37.36 166.743 36.528 167.063 35.6C167.383 34.64 167.543 33.648 167.543 32.624C167.543 31.568 167.351 30.576 166.967 29.648C166.615 28.688 166.119 27.856 165.479 27.152C164.871 26.448 164.135 25.904 163.271 25.52C162.439 25.104 161.559 24.896 160.631 24.896H150.023V40.448ZM199.418 53.024V56H176.522V21.92H198.986V24.896H179.882V37.184H196.538V40.016H179.882V53.024H199.418ZM205.772 56V21.92H220.172C221.644 21.92 222.988 22.24 224.204 22.88C225.452 23.488 226.524 24.304 227.42 25.328C228.316 26.32 229.004 27.456 229.484 28.736C229.996 30.016 230.252 31.312 230.252 32.624C230.252 33.872 230.06 35.072 229.676 36.224C229.324 37.344 228.812 38.368 228.14 39.296C227.5 40.192 226.716 40.96 225.788 41.6C224.86 42.208 223.82 42.624 222.668 42.848L231.02 56H227.228L219.212 43.424H209.132V56H205.772ZM209.132 40.448H220.268C221.26 40.448 222.156 40.24 222.956 39.824C223.788 39.376 224.492 38.784 225.068 38.048C225.644 37.312 226.092 36.48 226.412 35.552C226.732 34.624 226.892 33.648 226.892 32.624C226.892 31.6 226.7 30.624 226.316 29.696C225.964 28.736 225.468 27.904 224.828 27.2C224.22 26.496 223.484 25.936 222.62 25.52C221.788 25.104 220.908 24.896 219.98 24.896H209.132V40.448ZM234.875 38.72C234.875 36.672 235.227 34.64 235.931 32.624C236.667 30.576 237.723 28.752 239.099 27.152C240.475 25.552 242.171 24.256 244.187 23.264C246.203 22.24 248.491 21.728 251.051 21.728C254.091 21.728 256.683 22.416 258.827 23.792C261.003 25.168 262.603 26.96 263.627 29.168L260.987 30.8C260.443 29.68 259.771 28.736 258.971 27.968C258.203 27.2 257.371 26.576 256.475 26.096C255.579 25.616 254.651 25.28 253.691 25.088C252.731 24.864 251.787 24.752 250.859 24.752C248.811 24.752 247.003 25.168 245.435 26C243.867 26.832 242.539 27.92 241.451 29.264C240.395 30.608 239.595 32.128 239.051 33.824C238.507 35.488 238.235 37.184 238.235 38.912C238.235 40.8 238.555 42.608 239.195 44.336C239.867 46.064 240.763 47.6 241.883 48.944C243.035 50.256 244.379 51.312 245.915 52.112C247.483 52.88 249.179 53.264 251.003 53.264C251.963 53.264 252.939 53.152 253.931 52.928C254.955 52.672 255.931 52.288 256.859 51.776C257.819 51.232 258.699 50.576 259.499 49.808C260.299 49.008 260.971 48.048 261.515 46.928L264.299 48.368C263.755 49.648 262.987 50.784 261.995 51.776C261.003 52.736 259.899 53.552 258.683 54.224C257.467 54.896 256.171 55.408 254.795 55.76C253.451 56.112 252.123 56.288 250.811 56.288C248.475 56.288 246.331 55.776 244.379 54.752C242.427 53.728 240.747 52.4 239.339 50.768C237.931 49.104 236.827 47.232 236.027 45.152C235.259 43.04 234.875 40.896 234.875 38.72ZM292.934 53.024V56H270.038V21.92H292.502V24.896H273.398V37.184H290.054V40.016H273.398V53.024H292.934ZM299.288 56V21.92H302.648V53.024H322.328V56H299.288ZM327.272 56V21.92H330.632V53.024H350.312V56H327.272ZM82.256 77.18C81.608 77.18 81.008 77.048 80.456 76.784C79.904 76.508 79.424 76.148 79.016 75.704C78.62 75.248 78.308 74.732 78.08 74.156C77.864 73.568 77.756 72.962 77.756 72.338C77.756 71.69 77.864 71.072 78.08 70.484C78.296 69.896 78.596 69.38 78.98 68.936C79.364 68.492 79.814 68.138 80.33 67.874C80.858 67.61 81.434 67.478 82.058 67.478C82.466 67.478 82.85 67.538 83.21 67.658C83.57 67.778 83.906 67.94 84.218 68.144C84.53 68.336 84.812 68.564 85.064 68.828C85.316 69.092 85.532 69.374 85.712 69.674V63.86H86.612V75.74C86.612 76.04 86.738 76.19 86.99 76.19V77C86.918 77.012 86.858 77.018 86.81 77.018C86.762 77.03 86.714 77.036 86.666 77.036C86.426 77.036 86.222 76.946 86.054 76.766C85.886 76.574 85.802 76.376 85.802 76.172V75.128C85.418 75.752 84.902 76.25 84.254 76.622C83.618 76.994 82.952 77.18 82.256 77.18ZM82.418 76.37C82.742 76.37 83.09 76.304 83.462 76.172C83.834 76.04 84.176 75.86 84.488 75.632C84.812 75.392 85.088 75.122 85.316 74.822C85.544 74.522 85.676 74.198 85.712 73.85V70.772C85.58 70.436 85.388 70.118 85.136 69.818C84.896 69.506 84.62 69.242 84.308 69.026C83.996 68.798 83.66 68.618 83.3 68.486C82.94 68.354 82.592 68.288 82.256 68.288C81.716 68.288 81.224 68.408 80.78 68.648C80.336 68.876 79.958 69.182 79.646 69.566C79.334 69.938 79.094 70.37 78.926 70.862C78.758 71.342 78.674 71.84 78.674 72.356C78.674 72.896 78.77 73.406 78.962 73.886C79.154 74.366 79.418 74.792 79.754 75.164C80.102 75.536 80.498 75.83 80.942 76.046C81.398 76.262 81.89 76.37 82.418 76.37ZM93.4562 77.18C92.7962 77.18 92.1842 77.054 91.6202 76.802C91.0562 76.538 90.5642 76.184 90.1442 75.74C89.7362 75.284 89.4122 74.762 89.1722 74.174C88.9442 73.586 88.8302 72.956 88.8302 72.284C88.8302 71.624 88.9442 71.006 89.1722 70.43C89.4122 69.842 89.7362 69.332 90.1442 68.9C90.5522 68.456 91.0322 68.108 91.5842 67.856C92.1482 67.604 92.7542 67.478 93.4022 67.478C94.0622 67.478 94.6742 67.61 95.2382 67.874C95.8022 68.126 96.2882 68.474 96.6962 68.918C97.1042 69.35 97.4222 69.86 97.6502 70.448C97.8782 71.024 97.9922 71.636 97.9922 72.284C97.9922 72.344 97.9922 72.422 97.9922 72.518C97.9922 72.602 97.9862 72.656 97.9742 72.68H89.7662C89.8022 73.22 89.9282 73.724 90.1442 74.192C90.3602 74.648 90.6302 75.044 90.9542 75.38C91.2902 75.716 91.6742 75.98 92.1062 76.172C92.5382 76.364 93.0002 76.46 93.4922 76.46C93.8162 76.46 94.1342 76.418 94.4462 76.334C94.7582 76.238 95.0462 76.112 95.3102 75.956C95.5862 75.8 95.8262 75.614 96.0302 75.398C96.2462 75.17 96.4142 74.924 96.5342 74.66L97.3262 74.876C97.1942 75.212 96.9962 75.524 96.7322 75.812C96.4802 76.088 96.1802 76.328 95.8322 76.532C95.4962 76.736 95.1242 76.892 94.7162 77C94.3082 77.12 93.8882 77.18 93.4562 77.18ZM97.1282 71.96C97.0922 71.408 96.9662 70.904 96.7502 70.448C96.5462 69.992 96.2762 69.602 95.9402 69.278C95.6162 68.942 95.2382 68.684 94.8062 68.504C94.3742 68.312 93.9122 68.216 93.4202 68.216C92.9282 68.216 92.4662 68.312 92.0342 68.504C91.6022 68.684 91.2182 68.942 90.8822 69.278C90.5582 69.602 90.2942 69.998 90.0902 70.466C89.8982 70.922 89.7842 71.42 89.7482 71.96H97.1282ZM102.942 77.18C102.222 77.18 101.532 77.06 100.872 76.82C100.212 76.58 99.6364 76.22 99.1444 75.74L99.5944 75.128C100.098 75.584 100.62 75.92 101.16 76.136C101.7 76.352 102.294 76.46 102.942 76.46C103.758 76.46 104.412 76.292 104.904 75.956C105.408 75.608 105.66 75.128 105.66 74.516C105.66 74.228 105.594 73.988 105.462 73.796C105.342 73.592 105.156 73.424 104.904 73.292C104.652 73.148 104.34 73.022 103.968 72.914C103.596 72.806 103.164 72.692 102.672 72.572C102.144 72.452 101.682 72.332 101.286 72.212C100.902 72.092 100.584 71.948 100.332 71.78C100.08 71.612 99.8884 71.408 99.7564 71.168C99.6364 70.928 99.5764 70.622 99.5764 70.25C99.5764 69.782 99.6664 69.374 99.8464 69.026C100.026 68.678 100.272 68.39 100.584 68.162C100.908 67.934 101.274 67.766 101.682 67.658C102.102 67.538 102.546 67.478 103.014 67.478C103.746 67.478 104.394 67.604 104.958 67.856C105.522 68.096 105.96 68.408 106.272 68.792L105.768 69.278C105.456 68.918 105.048 68.648 104.544 68.468C104.052 68.288 103.524 68.198 102.96 68.198C102.612 68.198 102.282 68.234 101.97 68.306C101.67 68.378 101.406 68.492 101.178 68.648C100.95 68.804 100.77 69.008 100.638 69.26C100.506 69.5 100.44 69.788 100.44 70.124C100.44 70.4 100.482 70.622 100.566 70.79C100.662 70.958 100.806 71.102 100.998 71.222C101.202 71.342 101.46 71.45 101.772 71.546C102.084 71.63 102.456 71.726 102.888 71.834C103.476 71.978 103.998 72.116 104.454 72.248C104.91 72.38 105.288 72.542 105.588 72.734C105.9 72.926 106.134 73.154 106.29 73.418C106.458 73.682 106.542 74.018 106.542 74.426C106.542 75.266 106.212 75.938 105.552 76.442C104.904 76.934 104.034 77.18 102.942 77.18ZM108.638 77V67.64H109.538V77H108.638ZM108.638 65.516V63.86H109.538V65.516H108.638ZM116.145 77.144C115.497 77.144 114.903 77.012 114.363 76.748C113.823 76.472 113.355 76.112 112.959 75.668C112.575 75.212 112.269 74.696 112.041 74.12C111.825 73.544 111.717 72.95 111.717 72.338C111.717 71.702 111.819 71.09 112.023 70.502C112.239 69.914 112.539 69.398 112.923 68.954C113.307 68.498 113.763 68.138 114.291 67.874C114.831 67.61 115.425 67.478 116.073 67.478C116.889 67.478 117.597 67.694 118.197 68.126C118.809 68.546 119.325 69.062 119.745 69.674V67.64H120.573V77.18C120.573 77.816 120.453 78.374 120.213 78.854C119.973 79.334 119.649 79.73 119.241 80.042C118.845 80.366 118.377 80.606 117.837 80.762C117.309 80.93 116.751 81.014 116.163 81.014C115.623 81.014 115.137 80.96 114.705 80.852C114.273 80.756 113.889 80.612 113.553 80.42C113.229 80.24 112.935 80.012 112.671 79.736C112.419 79.472 112.197 79.178 112.005 78.854L112.617 78.44C112.989 79.076 113.493 79.538 114.129 79.826C114.765 80.126 115.443 80.276 116.163 80.276C116.643 80.276 117.093 80.21 117.513 80.078C117.945 79.946 118.317 79.748 118.629 79.484C118.953 79.232 119.205 78.914 119.385 78.53C119.577 78.146 119.673 77.696 119.673 77.18V75.128C119.289 75.74 118.779 76.232 118.143 76.604C117.507 76.964 116.841 77.144 116.145 77.144ZM116.361 76.37C116.757 76.37 117.141 76.298 117.513 76.154C117.897 75.998 118.239 75.8 118.539 75.56C118.851 75.32 119.103 75.05 119.295 74.75C119.499 74.45 119.625 74.15 119.673 73.85V70.772C119.529 70.412 119.337 70.082 119.097 69.782C118.857 69.47 118.581 69.206 118.269 68.99C117.969 68.774 117.639 68.606 117.279 68.486C116.931 68.354 116.577 68.288 116.217 68.288C115.653 68.288 115.149 68.408 114.705 68.648C114.261 68.888 113.883 69.2 113.571 69.584C113.271 69.968 113.037 70.406 112.869 70.898C112.713 71.378 112.635 71.864 112.635 72.356C112.635 72.896 112.731 73.406 112.923 73.886C113.115 74.366 113.379 74.792 113.715 75.164C114.051 75.536 114.447 75.83 114.903 76.046C115.359 76.262 115.845 76.37 116.361 76.37ZM131.036 77H130.136V71.78C130.136 70.568 129.962 69.686 129.614 69.134C129.278 68.582 128.738 68.306 127.994 68.306C127.598 68.306 127.202 68.378 126.806 68.522C126.422 68.666 126.062 68.87 125.726 69.134C125.39 69.398 125.096 69.71 124.844 70.07C124.592 70.418 124.406 70.796 124.286 71.204V77H123.386V67.64H124.232V69.872C124.424 69.512 124.658 69.188 124.934 68.9C125.222 68.6 125.54 68.348 125.888 68.144C126.248 67.928 126.626 67.766 127.022 67.658C127.418 67.538 127.826 67.478 128.246 67.478C129.266 67.478 129.986 67.838 130.406 68.558C130.826 69.266 131.036 70.286 131.036 71.618V77ZM137.736 77.18C137.076 77.18 136.464 77.054 135.9 76.802C135.336 76.538 134.844 76.184 134.424 75.74C134.016 75.284 133.692 74.762 133.452 74.174C133.224 73.586 133.11 72.956 133.11 72.284C133.11 71.624 133.224 71.006 133.452 70.43C133.692 69.842 134.016 69.332 134.424 68.9C134.832 68.456 135.312 68.108 135.864 67.856C136.428 67.604 137.034 67.478 137.682 67.478C138.342 67.478 138.954 67.61 139.518 67.874C140.082 68.126 140.568 68.474 140.976 68.918C141.384 69.35 141.702 69.86 141.93 70.448C142.158 71.024 142.272 71.636 142.272 72.284C142.272 72.344 142.272 72.422 142.272 72.518C142.272 72.602 142.266 72.656 142.254 72.68H134.046C134.082 73.22 134.208 73.724 134.424 74.192C134.64 74.648 134.91 75.044 135.234 75.38C135.57 75.716 135.954 75.98 136.386 76.172C136.818 76.364 137.28 76.46 137.772 76.46C138.096 76.46 138.414 76.418 138.726 76.334C139.038 76.238 139.326 76.112 139.59 75.956C139.866 75.8 140.106 75.614 140.31 75.398C140.526 75.17 140.694 74.924 140.814 74.66L141.606 74.876C141.474 75.212 141.276 75.524 141.012 75.812C140.76 76.088 140.46 76.328 140.112 76.532C139.776 76.736 139.404 76.892 138.996 77C138.588 77.12 138.168 77.18 137.736 77.18ZM141.408 71.96C141.372 71.408 141.246 70.904 141.03 70.448C140.826 69.992 140.556 69.602 140.22 69.278C139.896 68.942 139.518 68.684 139.086 68.504C138.654 68.312 138.192 68.216 137.7 68.216C137.208 68.216 136.746 68.312 136.314 68.504C135.882 68.684 135.498 68.942 135.162 69.278C134.838 69.602 134.574 69.998 134.37 70.466C134.178 70.922 134.064 71.42 134.028 71.96H141.408ZM148.104 77.18C147.456 77.18 146.856 77.048 146.304 76.784C145.752 76.508 145.272 76.148 144.864 75.704C144.468 75.248 144.156 74.732 143.928 74.156C143.712 73.568 143.604 72.962 143.604 72.338C143.604 71.69 143.712 71.072 143.928 70.484C144.144 69.896 144.444 69.38 144.828 68.936C145.212 68.492 145.662 68.138 146.178 67.874C146.706 67.61 147.282 67.478 147.906 67.478C148.314 67.478 148.698 67.538 149.058 67.658C149.418 67.778 149.754 67.94 150.066 68.144C150.378 68.336 150.66 68.564 150.912 68.828C151.164 69.092 151.38 69.374 151.56 69.674V63.86H152.46V75.74C152.46 76.04 152.586 76.19 152.838 76.19V77C152.766 77.012 152.706 77.018 152.658 77.018C152.61 77.03 152.562 77.036 152.514 77.036C152.274 77.036 152.07 76.946 151.902 76.766C151.734 76.574 151.65 76.376 151.65 76.172V75.128C151.266 75.752 150.75 76.25 150.102 76.622C149.466 76.994 148.8 77.18 148.104 77.18ZM148.266 76.37C148.59 76.37 148.938 76.304 149.31 76.172C149.682 76.04 150.024 75.86 150.336 75.632C150.66 75.392 150.936 75.122 151.164 74.822C151.392 74.522 151.524 74.198 151.56 73.85V70.772C151.428 70.436 151.236 70.118 150.984 69.818C150.744 69.506 150.468 69.242 150.156 69.026C149.844 68.798 149.508 68.618 149.148 68.486C148.788 68.354 148.44 68.288 148.104 68.288C147.564 68.288 147.072 68.408 146.628 68.648C146.184 68.876 145.806 69.182 145.494 69.566C145.182 69.938 144.942 70.37 144.774 70.862C144.606 71.342 144.522 71.84 144.522 72.356C144.522 72.896 144.618 73.406 144.81 73.886C145.002 74.366 145.266 74.792 145.602 75.164C145.95 75.536 146.346 75.83 146.79 76.046C147.246 76.262 147.738 76.37 148.266 76.37ZM160.363 77V68.378H159.049V67.64H160.363V67.334C160.363 66.182 160.597 65.288 161.065 64.652C161.533 64.004 162.181 63.68 163.009 63.68C163.369 63.68 163.717 63.734 164.053 63.842C164.389 63.95 164.665 64.094 164.881 64.274L164.557 64.922C164.389 64.79 164.179 64.682 163.927 64.598C163.687 64.514 163.435 64.472 163.171 64.472C162.559 64.472 162.085 64.718 161.749 65.21C161.425 65.69 161.263 66.392 161.263 67.316V67.64H163.927V68.378H161.263V77H160.363ZM169.129 77.18C168.469 77.18 167.857 77.054 167.293 76.802C166.741 76.538 166.261 76.184 165.853 75.74C165.445 75.296 165.127 74.78 164.899 74.192C164.671 73.604 164.557 72.986 164.557 72.338C164.557 71.678 164.671 71.054 164.899 70.466C165.139 69.878 165.463 69.362 165.871 68.918C166.279 68.474 166.759 68.126 167.311 67.874C167.875 67.61 168.481 67.478 169.129 67.478C169.777 67.478 170.377 67.61 170.929 67.874C171.481 68.126 171.961 68.474 172.369 68.918C172.789 69.362 173.113 69.878 173.341 70.466C173.581 71.054 173.701 71.678 173.701 72.338C173.701 72.986 173.581 73.604 173.341 74.192C173.113 74.78 172.795 75.296 172.387 75.74C171.979 76.184 171.493 76.538 170.929 76.802C170.377 77.054 169.777 77.18 169.129 77.18ZM165.457 72.374C165.457 72.926 165.553 73.448 165.745 73.94C165.937 74.42 166.195 74.84 166.519 75.2C166.855 75.56 167.245 75.848 167.689 76.064C168.133 76.268 168.607 76.37 169.111 76.37C169.615 76.37 170.089 76.268 170.533 76.064C170.977 75.848 171.367 75.554 171.703 75.182C172.039 74.81 172.303 74.384 172.495 73.904C172.687 73.412 172.783 72.884 172.783 72.32C172.783 71.768 172.687 71.252 172.495 70.772C172.303 70.28 172.039 69.854 171.703 69.494C171.367 69.122 170.977 68.828 170.533 68.612C170.101 68.396 169.633 68.288 169.129 68.288C168.625 68.288 168.151 68.396 167.707 68.612C167.263 68.828 166.873 69.122 166.537 69.494C166.213 69.866 165.949 70.304 165.745 70.808C165.553 71.3 165.457 71.822 165.457 72.374ZM180.285 68.45C179.445 68.474 178.707 68.726 178.071 69.206C177.447 69.674 177.009 70.322 176.757 71.15V77H175.857V67.64H176.721V69.944C177.045 69.284 177.471 68.75 177.999 68.342C178.539 67.922 179.115 67.682 179.727 67.622C179.847 67.61 179.955 67.604 180.051 67.604C180.147 67.604 180.225 67.604 180.285 67.604V68.45ZM197.545 67.64H198.445L194.395 77H193.639L191.533 72.05L189.427 77H188.671L184.621 67.64H185.503L189.085 76.01L191.047 71.402L189.463 67.658H190.237L191.533 70.754L192.811 67.658H193.603L192.019 71.402L193.981 76.01L197.545 67.64ZM203.829 77.18C203.169 77.18 202.557 77.054 201.993 76.802C201.429 76.538 200.937 76.184 200.517 75.74C200.109 75.284 199.785 74.762 199.545 74.174C199.317 73.586 199.203 72.956 199.203 72.284C199.203 71.624 199.317 71.006 199.545 70.43C199.785 69.842 200.109 69.332 200.517 68.9C200.925 68.456 201.405 68.108 201.957 67.856C202.521 67.604 203.127 67.478 203.775 67.478C204.435 67.478 205.047 67.61 205.611 67.874C206.175 68.126 206.661 68.474 207.069 68.918C207.477 69.35 207.795 69.86 208.023 70.448C208.251 71.024 208.365 71.636 208.365 72.284C208.365 72.344 208.365 72.422 208.365 72.518C208.365 72.602 208.359 72.656 208.347 72.68H200.139C200.175 73.22 200.301 73.724 200.517 74.192C200.733 74.648 201.003 75.044 201.327 75.38C201.663 75.716 202.047 75.98 202.479 76.172C202.911 76.364 203.373 76.46 203.865 76.46C204.189 76.46 204.507 76.418 204.819 76.334C205.131 76.238 205.419 76.112 205.683 75.956C205.959 75.8 206.199 75.614 206.403 75.398C206.619 75.17 206.787 74.924 206.907 74.66L207.699 74.876C207.567 75.212 207.369 75.524 207.105 75.812C206.853 76.088 206.553 76.328 206.205 76.532C205.869 76.736 205.497 76.892 205.089 77C204.681 77.12 204.261 77.18 203.829 77.18ZM207.501 71.96C207.465 71.408 207.339 70.904 207.123 70.448C206.919 69.992 206.649 69.602 206.313 69.278C205.989 68.942 205.611 68.684 205.179 68.504C204.747 68.312 204.285 68.216 203.793 68.216C203.301 68.216 202.839 68.312 202.407 68.504C201.975 68.684 201.591 68.942 201.255 69.278C200.931 69.602 200.667 69.998 200.463 70.466C200.271 70.922 200.157 71.42 200.121 71.96H207.501ZM214.719 77.18C213.987 77.18 213.303 76.988 212.667 76.604C212.031 76.22 211.533 75.728 211.173 75.128V77H210.345V63.86H211.245V69.674C211.689 69.026 212.211 68.498 212.811 68.09C213.423 67.682 214.125 67.478 214.917 67.478C215.577 67.478 216.171 67.622 216.699 67.91C217.239 68.186 217.689 68.558 218.049 69.026C218.421 69.482 218.703 70.004 218.895 70.592C219.099 71.168 219.201 71.756 219.201 72.356C219.201 73.004 219.087 73.622 218.859 74.21C218.631 74.786 218.313 75.296 217.905 75.74C217.509 76.172 217.035 76.52 216.483 76.784C215.943 77.048 215.355 77.18 214.719 77.18ZM214.539 76.37C215.091 76.37 215.595 76.256 216.051 76.028C216.507 75.8 216.897 75.5 217.221 75.128C217.557 74.744 217.815 74.312 217.995 73.832C218.187 73.352 218.283 72.86 218.283 72.356C218.283 71.828 218.193 71.324 218.013 70.844C217.845 70.352 217.599 69.92 217.275 69.548C216.963 69.164 216.585 68.858 216.141 68.63C215.709 68.402 215.229 68.288 214.701 68.288C214.305 68.288 213.933 68.36 213.585 68.504C213.237 68.636 212.913 68.816 212.613 69.044C212.325 69.272 212.061 69.536 211.821 69.836C211.593 70.136 211.401 70.448 211.245 70.772V73.868C211.281 74.216 211.413 74.546 211.641 74.858C211.869 75.158 212.139 75.422 212.451 75.65C212.775 75.866 213.123 76.04 213.495 76.172C213.867 76.304 214.215 76.37 214.539 76.37Z" fill="#F8F8F8"/>
</svg>
