<svg width="32" height="32" viewBox="0 0 32 32" fill="none" xmlns="http://www.w3.org/2000/svg">
<path d="M15.2237 0.0185365C6.7725 0.420932 0.103342 7.45911 0.12898 15.9198C0.136786 18.4968 0.758901 20.929 1.85635 23.0782L0.171378 31.2572C0.0802301 31.6996 0.479259 32.087 0.918773 31.9829L8.93326 30.0841C10.9923 31.1098 13.305 31.7022 15.7527 31.7396C24.3906 31.8715 31.5931 25.0128 31.8623 16.3781C32.1509 7.1223 24.5118 -0.423808 15.2237 0.0185365ZM24.7867 24.6578C22.4396 27.0049 19.3189 28.2975 15.9996 28.2975C14.056 28.2975 12.1953 27.8615 10.4688 27.0015L9.35272 26.4455L4.43901 27.6097L5.47332 22.5888L4.92345 21.512C4.0272 19.7568 3.57277 17.8587 3.57277 15.8707C3.57277 12.5514 4.86536 9.43076 7.21247 7.08358C9.53861 4.75744 12.7102 3.4438 15.9998 3.4438C19.3191 3.44388 22.4396 4.73647 24.7867 7.0835C27.1338 9.43061 28.4264 12.5512 28.4265 15.8705C28.4264 19.1602 27.1128 22.3318 24.7867 24.6578Z" fill="black"/>
<path d="M23.7015 19.3125L20.6273 18.4298C20.2232 18.3138 19.7879 18.4284 19.4934 18.7285L18.7417 19.4944C18.4247 19.8174 17.9437 19.9212 17.5242 19.7514C16.0699 19.1629 13.0109 16.443 12.2297 15.0825C12.0043 14.6901 12.0415 14.1994 12.3183 13.8414L12.9746 12.9923C13.2317 12.6596 13.286 12.2128 13.1159 11.8282L11.8226 8.90301C11.5128 8.20237 10.6175 7.99842 10.0325 8.49311C9.17456 9.21877 8.15656 10.3215 8.03281 11.5432C7.81462 13.697 8.73834 16.4122 12.2314 19.6724C16.2669 23.4388 19.4984 23.9364 21.6025 23.4267C22.7959 23.1377 23.7496 21.9788 24.3515 21.03C24.7619 20.3831 24.4378 19.524 23.7015 19.3125Z" fill="black"/>
</svg>
